<svg preserveAspectRatio="none" width="100%" height="100%" overflow="visible" style="display: block;" viewBox="0 0 158.667 56" fill="none" xmlns="http://www.w3.org/2000/svg">
<g id="----------------lexus-navi- 2">
<path id="Union" d="M115.485 18.4502L115.493 37.4893C112.669 37.4918 110.059 37.7259 107.908 35.5156C106.364 33.9269 105.051 30.9098 104.018 28.8594C103.218 27.2785 102.409 25.7029 101.593 24.1309C101.567 24.1818 101.546 24.2706 101.526 24.3926C101.238 26.2249 101.643 35.5606 101.396 37.4756C101.396 37.4736 101.396 37.4717 101.396 37.4697C101.395 37.4717 101.396 37.4737 101.396 37.4756C100.029 37.5281 98.374 37.4834 96.9844 37.4834L96.9922 18.4482C104.002 18.3904 104.41 19.7736 107.44 25.6992C107.985 26.7768 108.533 27.8527 109.085 28.9268L110.75 32.1436L110.922 32.1035C110.95 32.0495 110.971 31.8198 110.985 31.4561C110.999 31.0926 111.007 30.5953 111.011 30.0059C111.018 28.8266 111.008 27.2786 110.996 25.6953C110.976 22.9251 110.951 20.047 111.006 18.8477C111.014 18.6763 111.024 18.539 111.035 18.4414L115.485 18.4502Z" fill="var(--fill-0, white)"/>
<path id="Subtract" d="M124.559 23.6876C127.017 23.6795 130.119 23.2571 132.018 25.1192C132.603 25.6962 133.002 26.4346 133.165 27.2384C133.341 28.1051 133.275 30.1852 133.271 31.17L133.266 37.4864L125.772 37.4952C124.12 37.4961 120.98 37.6349 119.54 37.2325C117.816 36.495 116.553 35.1375 116.559 33.17C116.568 32.044 117.031 30.9702 117.844 30.1905C118.383 29.6677 119.044 29.285 119.767 29.0782C121.01 28.7284 124.121 28.9751 125.581 28.9122C127.165 28.8443 128.436 29.764 128.936 30.5987C128.929 30.0349 128.987 29.0869 128.934 28.3849C128.906 28.006 128.716 27.6538 128.349 27.5567C126.406 27.044 119.988 27.9303 118.665 27.0353C117.47 26.2263 117.232 24.9506 116.863 23.6895L124.559 23.6876ZM121.456 32.1661C120.381 32.1831 119.821 33.8992 121.683 33.8995H127.704C128.91 33.8995 128.738 32.1661 127.704 32.1661C127.664 32.1658 123.514 32.1344 121.456 32.1661Z" fill="var(--fill-0, white)"/>
<path id="Union_2" d="M5.45312 18.4531V26.2295C5.45312 28.4264 5.45362 31.9139 6.64746 33.127C7.00276 33.4879 7.45903 33.7327 7.95605 33.8301C8.52445 33.9472 10.325 33.9052 11.0068 33.9043L16.8574 33.8975C17.4791 35.5455 18.2512 36.4045 19.7715 37.2686C19.8153 37.2832 20.1087 37.3731 20.1025 37.4395C20.1014 37.44 20.0993 37.4389 20.0977 37.4395L20.0986 37.4404C19.9707 37.5059 16.4431 37.5085 16.0977 37.4697L16.0996 37.4688C15.6628 37.4858 15.1726 37.4818 14.7324 37.4844L10.499 37.4961C7.53309 37.4978 4.63501 37.5408 2.32617 35.2275C1.49016 34.3859 0.909897 33.3238 0.652344 32.166C0.401059 31.0418 0.485766 28.2712 0.488281 26.9658L0.504883 18.4453L5.45312 18.4531Z" fill="var(--fill-0, white)"/>
<path id="Union_3" d="M152.925 23.4518C152.735 23.6226 152.349 23.9682 152.233 24.1765C149.831 28.5228 147.782 33.0814 145.503 37.4968C143.154 37.5114 140.929 37.695 139.098 35.8893C138.252 35.0554 137.681 33.6798 137.169 32.6003L134.716 27.4177C134.137 26.1998 133.543 24.5499 132.492 23.7097L132.491 23.7116C132.301 23.643 132.23 23.5932 132.235 23.5573V23.5544C132.255 23.4264 133.252 23.475 133.3 23.4753C136.724 23.4695 138.118 24.5206 139.667 27.5466C140.659 29.4839 141.713 31.5763 142.772 33.4724C143.819 31.2024 144.854 28.9136 145.963 26.6755C147.657 23.2545 149.607 23.4366 152.925 23.4518Z" fill="var(--fill-0, white)"/>
<path id="Vector" d="M156.412 23.5636L157.596 23.5469L157.608 37.4853L154.166 37.4861L153.193 37.4827L153.17 29.8512C153.168 28.6692 153.14 27.4811 153.188 26.2999C153.275 24.139 154.525 23.6459 156.412 23.5636Z" fill="var(--fill-0, white)"/>
<path id="Vector_2" d="M87.3871 27.9805L95.8009 27.9822C95.7983 29.1117 95.8026 30.2411 95.8164 31.3706L87.375 31.368L87.3871 27.9805Z" fill="var(--fill-0, white)"/>
<path id="Vector_3" d="M153.184 18.4453L157.607 18.446C157.621 19.9372 157.755 20.6487 156.674 21.8047C155.466 22.829 154.713 22.711 153.201 22.7025L153.184 18.4453Z" fill="var(--fill-0, white)"/>
<path id="Union_4" d="M26.7236 23.5799C29.2168 23.7153 31.5674 24.4563 33.3476 26.3592C34.9262 28.0831 35.0632 29.7915 35.2255 31.9979L28.0673 32.0067C26.7956 32.0066 23.0681 31.5796 22.7997 33.2655C22.8824 33.5221 22.96 33.6607 23.2148 33.7752C24.2012 34.2206 33.4846 34.0229 35.2216 33.991C36.4921 32.9254 38.0116 31.751 39.2294 30.6922C38.0716 29.6713 36.9434 28.6175 35.8466 27.5321C34.7763 26.4905 33.0474 24.658 31.8075 24.0028L31.8066 24.0008C31.5763 23.8818 31.0854 23.6963 31.6581 23.6571L31.8027 23.6444V23.6453C38.1984 23.8618 37.7394 22.8168 42.7802 27.949C43.6452 27.1556 46.1047 24.804 46.9706 24.2772C47.4403 23.9897 47.9643 23.8017 48.5097 23.7254C49.1918 23.6232 50.7905 23.6779 51.5409 23.6854C53.209 23.7038 54.8777 23.7087 56.5458 23.701L56.5351 28.8397C56.5315 29.3763 56.5382 30.012 56.5214 30.534C56.4104 33.9965 57.4868 33.9809 60.4267 33.9783L62.8935 33.9705L62.8866 23.7059L67.6376 23.6942L67.6396 36.7655C72.1576 31.191 79.2911 36.3621 80.6601 32.0692L68.3007 32.0389C68.6585 29.2857 69.498 27.1149 71.7782 25.3582C72.6658 24.6676 73.6938 24.1797 74.79 23.9285C76.2231 23.6038 78.3102 23.6907 79.83 23.6922L86.5907 23.701C86.297 24.7306 85.8905 26.0321 85.664 27.0555L80.2743 27.0418C77.6527 27.0366 76.1354 26.5053 74.8505 29.2235L86.4013 29.2186C86.4013 31.6731 86.4548 33.3265 84.6249 35.2537C83.7487 36.1773 81.569 37.2849 80.3749 37.4012C78.3677 37.5967 75.5836 37.5027 73.5312 37.5018L58.5331 37.492C55.5528 37.4808 53.0467 37.1767 52.1269 33.6981C51.8151 32.5186 51.9336 30.9909 51.9355 29.7537L51.9452 24.5731L45.8329 30.324C48.243 32.6752 50.8015 35.0767 53.1493 37.4588C50.9839 37.4597 48.794 37.4761 46.6308 37.452C45.1649 35.9754 43.6828 34.5139 42.1855 33.0692C37.3419 37.7712 38.3585 37.5653 31.6542 37.5584C29.1706 37.5696 26.6866 37.5655 24.203 37.5457C22.2621 37.5216 20.11 37.0427 18.6864 35.6239C17.5487 34.4909 17.324 33.2444 17.3368 31.7264C17.3824 26.3824 21.5938 23.3015 26.7236 23.5799ZM26.4599 26.8358C23.3487 26.9633 22.1622 27.9348 21.8905 31.076C22.8741 30.1654 23.2375 29.9297 24.5712 29.5946C25.9353 29.3921 28.8804 29.466 30.3886 29.4686C29.7893 27.1583 28.7403 26.8393 26.4599 26.8358Z" fill="var(--fill-0, white)"/>
</g>
</svg>
